<?xml version="1.0" encoding="UTF-8"?>
<svg xmlns="http://www.w3.org/2000/svg" xmlns:xlink="http://www.w3.org/1999/xlink" width="25pt" height="25pt" viewBox="0 0 25 25" version="1.1">
<defs>
<clipPath id="clip1">
  <path d="M 1.042969 1.046875 L 23.960938 1.046875 L 23.960938 23.964844 L 1.042969 23.964844 Z M 1.042969 1.046875 "/>
</clipPath>
</defs>
<g id="surface1">
<g clip-path="url(#clip1)" clip-rule="nonzero">
<path style=" stroke:none;fill-rule:nonzero;fill:rgb(100%,77.647059%,0.392157%);fill-opacity:1;" d="M 10.195312 21.601562 L 10.195312 23.921875 L 9.632812 23.464844 C 8.113281 22.195312 6.695312 20.808594 5.390625 19.316406 C 2.503906 16.007812 1.042969 13.03125 1.042969 10.484375 L 1.042969 10.230469 C 1.089844 5.210938 5.175781 1.167969 10.195312 1.167969 C 15.214844 1.167969 19.296875 5.210938 19.347656 10.230469 L 19.347656 10.484375 C 19.347656 10.699219 19.335938 10.917969 19.316406 11.136719 L 17.527344 9.5 C 17.136719 5.59375 13.75 2.679688 9.828125 2.875 C 5.90625 3.070312 2.828125 6.304688 2.828125 10.230469 L 2.828125 10.484375 C 2.828125 14.792969 8.386719 20.015625 10.195312 21.601562 Z M 15.6875 20.324219 L 18.367188 20.324219 L 18.367188 17.640625 L 15.6875 17.640625 Z M 10.195312 6.433594 C 12.292969 6.433594 13.992188 8.132812 13.992188 10.230469 C 13.992188 12.328125 12.292969 14.027344 10.195312 14.027344 C 8.097656 14.027344 6.398438 12.328125 6.398438 10.230469 C 6.402344 8.132812 8.097656 6.433594 10.195312 6.433594 Z M 10.195312 8.222656 C 9.085938 8.222656 8.183594 9.121094 8.183594 10.230469 C 8.183594 11.339844 9.085938 12.242188 10.195312 12.242188 C 11.304688 12.242188 12.207031 11.339844 12.207031 10.230469 C 12.207031 9.699219 11.996094 9.183594 11.617188 8.808594 C 11.242188 8.429688 10.730469 8.21875 10.195312 8.21875 Z M 22.753906 19.105469 L 22.253906 18.648438 L 22.253906 21.515625 C 22.25 22.851562 21.167969 23.933594 19.832031 23.9375 L 14.175781 23.9375 C 12.839844 23.933594 11.757812 22.851562 11.757812 21.515625 L 11.757812 18.648438 L 11.253906 19.105469 L 10.050781 17.785156 L 17.003906 11.441406 L 23.960938 17.785156 Z M 20.472656 17.015625 L 17.007812 13.859375 L 13.546875 17.015625 L 13.546875 21.515625 C 13.546875 21.867188 13.832031 22.152344 14.183594 22.152344 L 19.839844 22.152344 C 20.191406 22.152344 20.480469 21.867188 20.480469 21.515625 Z M 20.472656 17.015625 "/>
</g>
</g>
</svg>
