<?xml version="1.0" encoding="UTF-8"?>
<svg xmlns="http://www.w3.org/2000/svg" xmlns:xlink="http://www.w3.org/1999/xlink" width="19pt" height="19pt" viewBox="0 0 19 19" version="1.1">
<g id="surface1">
<path style=" stroke:none;fill-rule:nonzero;fill:rgb(0%,11.372549%,21.960784%);fill-opacity:1;" d="M 4.453125 7.53125 L 2.988281 7.53125 C 3.214844 4.472656 5.546875 1.980469 8.585938 1.550781 C 11.628906 1.121094 14.558594 2.871094 15.625 5.75 C 15.8125 6.058594 16.195312 6.191406 16.535156 6.0625 C 16.875 5.9375 17.078125 5.589844 17.023438 5.230469 C 15.660156 1.644531 11.941406 -0.472656 8.160156 0.183594 C 4.378906 0.84375 1.59375 4.089844 1.523438 7.929688 C 0.589844 8.453125 0.0117188 9.433594 0.00390625 10.503906 L 0.00390625 13.023438 C 0.0078125 14.660156 1.335938 15.988281 2.972656 15.992188 L 4.492188 15.992188 C 4.910156 15.992188 5.25 15.652344 5.25 15.234375 L 5.25 8.277344 C 5.25 7.859375 4.910156 7.519531 4.492188 7.519531 Z M 3.695312 14.503906 L 2.933594 14.503906 C 2.097656 14.503906 1.417969 13.824219 1.417969 12.984375 L 1.417969 10.503906 C 1.417969 9.664062 2.097656 8.984375 2.933594 8.984375 L 3.695312 8.984375 Z M 3.695312 14.503906 "/>
<path style=" stroke:none;fill-rule:nonzero;fill:rgb(0%,11.372549%,21.960784%);fill-opacity:1;" d="M 16.035156 7.53125 L 14.515625 7.53125 C 14.097656 7.53125 13.757812 7.875 13.757812 8.292969 L 13.757812 16.03125 C 13.757812 16.449219 13.417969 16.789062 12.996094 16.789062 L 10.71875 16.789062 C 10.429688 16.242188 9.835938 15.925781 9.21875 15.988281 C 8.601562 16.050781 8.085938 16.484375 7.914062 17.082031 C 7.746094 17.679688 7.953125 18.316406 8.445312 18.699219 C 8.933594 19.078125 9.605469 19.125 10.140625 18.808594 C 10.382812 18.675781 10.582031 18.472656 10.71875 18.234375 L 12.996094 18.234375 C 14.222656 18.230469 15.21875 17.234375 15.222656 16.007812 L 15.222656 15.96875 L 15.980469 15.96875 C 16.773438 15.980469 17.53125 15.675781 18.097656 15.121094 C 18.660156 14.570312 18.984375 13.8125 18.988281 13.023438 L 18.988281 10.503906 C 18.988281 8.867188 17.667969 7.542969 16.035156 7.53125 Z M 17.515625 13.023438 C 17.515625 13.847656 16.859375 14.523438 16.035156 14.542969 L 15.273438 14.542969 L 15.273438 9.015625 L 16.035156 9.015625 C 16.859375 9.035156 17.515625 9.707031 17.515625 10.53125 Z M 17.515625 13.023438 "/>
</g>
</svg>
